<svg xmlns="http://www.w3.org/2000/svg" xmlns:xlink="http://www.w3.org/1999/xlink" viewBox="0 0 32 32"><defs><style>.a{fill:#91918f;}.b{fill:#429d51;}.c{clip-path:url(#a);}.d{fill:#edeeec;stroke:#edeeec;stroke-width:0.5px;fill-rule:evenodd;}</style><clipPath id="a"><path class="a" d="M20.424-347.99H0v20.424H20.424Z" transform="translate(0 347.99)"/></clipPath></defs><g transform="translate(-5634 -2549)"><g transform="translate(43)"><rect class="b" width="32" height="32" rx="5" transform="translate(5591 2549)"/><g transform="translate(5596.828 2554.736)"><g class="c" transform="translate(0)"><g transform="translate(0 3.522)"><path class="d" d="M-135.539-11.3q2.934,0,5.868,0a1.764,1.764,0,0,1,1.878,1.87q0,5.883,0,11.766a1.761,1.761,0,0,1-1.861,1.856q-5.883,0-11.765,0a1.764,1.764,0,0,1-1.864-1.855q0-5.883,0-11.766a1.765,1.765,0,0,1,1.877-1.871h5.868m-8.45,7.777q0,2.9,0,5.807A2.469,2.469,0,0,0-141.38,4.9h11.7a2.465,2.465,0,0,0,2.589-2.6q0-5.836,0-11.673A2.469,2.469,0,0,0-129.712-12h-11.7a2.464,2.464,0,0,0-2.575,2.586q0,2.948,0,5.9" transform="translate(143.99 12.005)"/></g><g transform="translate(4.21 0)"><path class="d" d="M-130.117-.027q-2.948,0-5.9,0A2.156,2.156,0,0,0-138.2,2.442a.335.335,0,0,0,.363.341.338.338,0,0,0,.339-.366,3.989,3.989,0,0,1,.051-.669A1.362,1.362,0,0,1-136.113.68q6-.006,12,0a1.385,1.385,0,0,1,1.4,1.4q.008,6,0,12a1.4,1.4,0,0,1-1.384,1.387c-.127,0-.255-.005-.381,0a.33.33,0,0,0-.339.335.333.333,0,0,0,.311.362,2.149,2.149,0,0,0,2.5-2.068q.015-6.014,0-12.028a2.093,2.093,0,0,0-2.121-2.094c-1.995-.007-3.99,0-5.984,0" transform="translate(138.219 0.028)"/></g><g transform="translate(5.519 9.046)"><path class="d" d="M-53.369-41.293c-.732,0-1.415,0-2.1,0-.316,0-.476.118-.48.346s.162.357.47.358c.692,0,1.384,0,2.109,0v1.918c0,.088,0,.176,0,.264,0,.229.106.388.341.393.251.006.363-.156.363-.4,0-.712,0-1.424,0-2.175h1.471c.215,0,.43,0,.645,0,.305,0,.481-.134.462-.362-.022-.272-.205-.345-.452-.344-.693,0-1.387,0-2.126,0v-.348c0-.606,0-1.212,0-1.818,0-.241-.1-.41-.353-.409s-.352.172-.352.412c0,.711,0,1.422,0,2.163" transform="translate(55.948 43.868)"/></g></g></g></g></g></svg>