<svg xmlns="http://www.w3.org/2000/svg" xmlns:xlink="http://www.w3.org/1999/xlink" viewBox="0 0 20 20"><defs><style>.a,.c{fill:#91918f;}.b{clip-path:url(#a);}.c,.d{stroke:#91918f;stroke-width:0.5px;fill-rule:evenodd;}.d{fill:#91918e;}</style><clipPath id="a"><path class="a" d="M20-347.99H0v20H20Z" transform="translate(0 347.99)"/></clipPath></defs><g class="b" transform="translate(0)"><g transform="translate(0 3.449)"><path class="c" d="M-135.715-11.315q2.873,0,5.746,0a1.728,1.728,0,0,1,1.839,1.831q0,5.761,0,11.522a1.725,1.725,0,0,1-1.823,1.817q-5.76,0-11.521,0A1.727,1.727,0,0,1-143.3,2.039q0-5.761,0-11.522a1.728,1.728,0,0,1,1.838-1.832h5.746M-143.989-3.7q0,2.843,0,5.687a2.418,2.418,0,0,0,2.555,2.558h11.459A2.414,2.414,0,0,0-127.44,2q0-5.715,0-11.431A2.418,2.418,0,0,0-130.009-12h-11.459a2.413,2.413,0,0,0-2.522,2.532q0,2.886,0,5.773" transform="translate(143.99 12.005)"/></g><g transform="translate(4.123 0)"><path class="d" d="M-130.285-.027q-2.887,0-5.774,0A2.111,2.111,0,0,0-138.2,2.391a.328.328,0,0,0,.356.334.331.331,0,0,0,.332-.358,3.909,3.909,0,0,1,.05-.655A1.334,1.334,0,0,1-136.157.665q5.874-.006,11.749,0a1.356,1.356,0,0,1,1.371,1.37q.008,5.875,0,11.75a1.368,1.368,0,0,1-1.355,1.359c-.124,0-.249-.005-.373,0a.323.323,0,0,0-.332.328.326.326,0,0,0,.305.354,2.1,2.1,0,0,0,2.444-2.025q.014-5.889,0-11.778a2.049,2.049,0,0,0-2.077-2.051c-1.953-.007-3.907,0-5.86,0" transform="translate(138.219 0.028)"/></g><g transform="translate(5.404 8.858)"><path class="c" d="M-53.422-41.347c-.716,0-1.386,0-2.056,0-.309,0-.467.116-.47.339s.159.349.46.35c.677,0,1.355,0,2.066,0v1.878c0,.086,0,.172,0,.258,0,.224.1.379.334.385.246.005.355-.153.355-.391,0-.7,0-1.395,0-2.13h1.441c.211,0,.421,0,.632,0,.3,0,.471-.132.453-.354-.022-.267-.2-.338-.443-.337-.679,0-1.358,0-2.082,0v-.34c0-.593,0-1.187,0-1.78,0-.236-.1-.4-.346-.4s-.345.168-.344.4c0,.7,0,1.392,0,2.118" transform="translate(55.948 43.868)"/></g></g></svg>