<svg xmlns="http://www.w3.org/2000/svg" xmlns:xlink="http://www.w3.org/1999/xlink" viewBox="0 0 15 10"><defs><style>.a{fill:none;}.b{clip-path:url(#a);}.c{fill:#91918f;fill-rule:evenodd;}</style><clipPath id="a"><path class="a" d="M0-344.373H10v15H0Z" transform="translate(0 344.373)"/></clipPath></defs><g transform="translate(-668.075 225.865) rotate(90)"><g class="b" transform="translate(-225.865 -683.075)"><g transform="translate(0 0)"><path class="c" d="M-145.472-164.687l-2.3-1.911q-2.383-1.977-4.766-3.954a.86.86,0,0,1-.1-1.353,1.124,1.124,0,0,1,1.5.01q3.911,3.241,7.82,6.484a.861.861,0,0,1,0,1.444q-3.918,3.251-7.838,6.5a1.119,1.119,0,0,1-1.5-.014.858.858,0,0,1,.109-1.337l6.838-5.671.236-.2" transform="translate(152.927 172.187)"/></g></g></g></svg>