<svg xmlns="http://www.w3.org/2000/svg" xmlns:xlink="http://www.w3.org/1999/xlink" viewBox="0 0 20 20"><defs><style>.a,.c{fill:#8c8c89;}.b{clip-path:url(#a);}.c{fill-rule:evenodd;}.d,.f{fill:none;}.d{stroke:#8c8c89;}.e{stroke:none;}</style><clipPath id="a"><path class="a" d="M0-226.724H2.476v12.668H0Z" transform="translate(0 226.724)"/></clipPath></defs><g transform="translate(-1337 -246.5)"><g transform="translate(1345.774 250.173)"><g class="b"><g transform="translate(0.127 4.22)"><path class="c" d="M-.059-71.22c0-1.023-.009-2.047,0-3.07a1.089,1.089,0,0,1,1.439-1.093,1.018,1.018,0,0,1,.733.833,2.318,2.318,0,0,1,.039.5q0,2.847,0,5.694A3.031,3.031,0,0,1,2.136-68,1.04,1.04,0,0,1,.969-66.988,1.062,1.062,0,0,1-.056-68.094c-.013-1.042,0-2.084,0-3.126" transform="translate(0.063 75.435)"/></g><g transform="translate(0 0)"><path class="c" d="M0-20.405A1.273,1.273,0,0,1,1.25-21.612a1.268,1.268,0,0,1,1.224,1.233,1.27,1.27,0,0,1-1.236,1.253A1.268,1.268,0,0,1,0-20.405" transform="translate(0.001 21.613)"/></g></g></g><g class="d" transform="translate(1337 246.5)"><circle class="e" cx="10" cy="10" r="10"/><circle class="f" cx="10" cy="10" r="9.5"/></g></g></svg>