<svg xmlns="http://www.w3.org/2000/svg" xmlns:xlink="http://www.w3.org/1999/xlink" viewBox="0 0 16.617 16.592"><defs><style>.a{fill:none;}.b{clip-path:url(#a);}.c{fill:#429d51;fill-rule:evenodd;}</style><clipPath id="a"><path class="a" d="M0,0H16.617V16.592H0Z"/></clipPath></defs><g transform="translate(-118 543.046)"><g class="b" transform="translate(134.617 -526.454) rotate(180)"><g transform="translate(7.441 0)"><path class="c" d="M9.177,8.3a8.354,8.354,0,0,1-6.9,8.165,10.536,10.536,0,0,1-1.4.121.838.838,0,0,1-.864-.745.849.849,0,0,1,.637-.933,2.146,2.146,0,0,1,.425-.036A6.336,6.336,0,0,0,4.48,13.791,6.375,6.375,0,0,0,7.389,9.064a6.545,6.545,0,0,0-4.5-7.029A7.214,7.214,0,0,0,.815,1.706.843.843,0,0,1,.038.61.861.861,0,0,1,.92,0a8.087,8.087,0,0,1,4.7,1.518A8.192,8.192,0,0,1,9.063,7.075c.065.406.077.82.114,1.23" transform="translate(0)"/></g><g transform="translate(1.004 11.167)"><path class="c" d="M1.72.88a.851.851,0,0,1-.856.854A.875.875,0,0,1,0,.863.87.87,0,0,1,.838,0,.9.9,0,0,1,1.72.88" transform="translate(0 0)"/></g><g transform="translate(0 7.442)"><path class="c" d="M1.711.859a.849.849,0,0,1-.856.853A.856.856,0,1,1,.86,0a.848.848,0,0,1,.85.859" transform="translate(0 0)"/></g><g transform="translate(3.725 0.984)"><path class="c" d="M0,.849A.852.852,0,0,1,.845,0a.865.865,0,0,1,.862.854.867.867,0,0,1-.864.867A.859.859,0,0,1,0,.849" transform="translate(0 0)"/></g><g transform="translate(1.002 3.733)"><path class="c" d="M0,.854A.855.855,0,0,1,1.709.845a.872.872,0,0,1-.87.866A.854.854,0,0,1,0,.854" transform="translate(0 0)"/></g><g transform="translate(3.733 13.886)"><path class="c" d="M0,.849A.853.853,0,0,1,.845,0,.867.867,0,0,1,1.7.846a.874.874,0,0,1-.86.857A.846.846,0,0,1,0,.849" transform="translate(0 0)"/></g></g></g></svg>