<svg xmlns="http://www.w3.org/2000/svg" xmlns:xlink="http://www.w3.org/1999/xlink" viewBox="0 0 20 18"><defs><style>.a{fill:none;}.b{clip-path:url(#a);}.c{fill:#8c8c89;fill-rule:evenodd;}</style><clipPath id="a"><path class="a" d="M0-324.48H20v18H0Z" transform="translate(0 324.48)"/></clipPath></defs><g transform="translate(0 324.48)"><g class="b" transform="translate(0 -324.48)"><g transform="translate(2.159 0)"><path class="c" d="M-137.97-306.48c-.073,0-.145-.011-.218-.013a9.581,9.581,0,0,1-3.269-.666A9.4,9.4,0,0,1-144.41-309a8.853,8.853,0,0,1-1.843-2.378.906.906,0,0,1-.136-.321.73.73,0,0,1,.221-.607.445.445,0,0,1,.428-.091,1.47,1.47,0,0,1,.369.143.466.466,0,0,1,.177.188,8.062,8.062,0,0,0,.976,1.44,7.924,7.924,0,0,0,1.892,1.692,7.618,7.618,0,0,0,2.635,1.044,9.194,9.194,0,0,0,2.153.168,7.9,7.9,0,0,0,4.177-1.347,7.753,7.753,0,0,0,3.292-4.632,7.03,7.03,0,0,0,.217-1.606,7.39,7.39,0,0,0-1.3-4.374,7.962,7.962,0,0,0-3.206-2.764,7.956,7.956,0,0,0-2.624-.747,8.3,8.3,0,0,0-4.612.776,7.872,7.872,0,0,0-3.543,3.4.115.115,0,0,0-.009.018c-.115.345-.417.425-.735.448a.5.5,0,0,1-.532-.5.817.817,0,0,1,.1-.422,10.187,10.187,0,0,1,2-2.608,8.809,8.809,0,0,1,4.191-2.18,10.09,10.09,0,0,1,1.559-.215.259.259,0,0,0,.045-.011h.568a.307.307,0,0,0,.051.011,10.774,10.774,0,0,1,2.958.537,9.509,9.509,0,0,1,3.91,2.428,8.562,8.562,0,0,1,2.409,5.123,8.262,8.262,0,0,1-.132,2.64,8.857,8.857,0,0,1-2.486,4.529,9.258,9.258,0,0,1-3.85,2.3,9.478,9.478,0,0,1-2.547.42c-.077,0-.154.008-.231.013Z" transform="translate(146.418 324.48)"/></g><g transform="translate(0 5.924)"><path class="c" d="M0-49.884a.094.094,0,0,0,.013-.022.6.6,0,0,1,.59-.47c.041,0,.083,0,.125,0H9.019c-.028-.029-.047-.049-.066-.068q-.655-.622-1.31-1.244a.77.77,0,0,1-.265-.456.568.568,0,0,1,.291-.564.547.547,0,0,1,.606-.022,1.64,1.64,0,0,1,.31.231c.458.425.911.856,1.366,1.284L11-50.236a.607.607,0,0,1,.01.924Q9.89-48.259,8.77-47.21c-.081.076-.161.152-.244.227a.794.794,0,0,1-.517.241.589.589,0,0,1-.582-.752.986.986,0,0,1,.3-.429q.613-.582,1.224-1.166l.062-.062c-.033,0-.054-.005-.075-.005H.847a2.061,2.061,0,0,1-.357-.019.557.557,0,0,1-.475-.444A.284.284,0,0,0,0-49.657Z" transform="translate(0 52.813)"/></g></g></g></svg>