<svg xmlns="http://www.w3.org/2000/svg" xmlns:xlink="http://www.w3.org/1999/xlink" viewBox="0 0 111.333 38.944"><defs><style>.a,.g{fill:none;}.b{clip-path:url(#a);}.c{fill:#429d51;}.d{fill:#221714;}.e{fill:#1e893a;}.f{fill:#fff;}.g{stroke:#429d51;stroke-linecap:round;stroke-linejoin:round;stroke-width:1.722px;}</style><clipPath id="a"><path class="a" d="M0-85.359H111.333v38.944H0Z" transform="translate(0 85.359)"/></clipPath></defs><g transform="translate(0 85.359)"><g class="b" transform="translate(0 -85.359)"><g transform="translate(108.251 25.407)"><path class="c" d="M-3.674-1.84A1.541,1.541,0,0,1-5.215-.3,1.542,1.542,0,0,1-6.757-1.84,1.543,1.543,0,0,1-5.215-3.383,1.541,1.541,0,0,1-3.674-1.84" transform="translate(6.757 3.383)"/></g><path class="d" d="M237.828-21.565H240.4v9.6h-2.575Z" transform="translate(-129.322 50.67)"/><g transform="translate(0.448 16.312)"><path class="e" d="M-15.308,0H-5.64V22.147h-9.667V9.679H-28.151V0Z" transform="translate(28.151)"/></g><path class="f" d="M23.449-47.529H0v-.745H23.449Z" transform="translate(0 65.193)"/><path class="f" d="M23.449-44.1H0v-.746H23.449Z" transform="translate(0 63.332)"/><path class="f" d="M23.449-40.678H0v-.746H23.449Z" transform="translate(0 61.469)"/><path class="f" d="M23.449-37.253H0V-38H23.449Z" transform="translate(0 59.606)"/><path class="f" d="M23.449-33.827H0v-.747H23.449Z" transform="translate(0 57.744)"/><path class="f" d="M23.449-30.4H0v-.745H23.449Z" transform="translate(0 55.881)"/><path class="f" d="M23.449-26.975H0v-.745H23.449Z" transform="translate(0 54.017)"/><path class="f" d="M23.449-23.552H0V-24.3H23.449Z" transform="translate(0 52.156)"/><path class="f" d="M23.449-20.126H0v-.745H23.449Z" transform="translate(0 50.293)"/><path class="f" d="M23.449-16.7H0v-.747H23.449Z" transform="translate(0 48.431)"/><path class="f" d="M23.449-13.274H0v-.746H23.449Z" transform="translate(0 46.567)"/><path class="f" d="M23.449-9.849H0V-10.6H23.449Z" transform="translate(0 44.706)"/><path class="f" d="M23.449-6.423H0V-7.17H23.449Z" transform="translate(0 42.843)"/><path class="f" d="M23.449-3H0v-.747H23.449Z" transform="translate(0 40.98)"/><g transform="translate(65.15 25.392)"><path class="c" d="M-3.712-1.857A1.557,1.557,0,0,1-5.269-.3,1.557,1.557,0,0,1-6.827-1.857,1.559,1.559,0,0,1-5.269-3.416,1.558,1.558,0,0,1-3.712-1.857" transform="translate(6.827 3.416)"/></g><g transform="translate(45.29 30.661)"><path class="c" d="M-3.823-1.912a1.6,1.6,0,0,1-1.6,1.6,1.6,1.6,0,0,1-1.6-1.6,1.6,1.6,0,0,1,1.6-1.6,1.6,1.6,0,0,1,1.6,1.6" transform="translate(7.03 3.516)"/></g><g transform="translate(25.84 25.829)"><path class="d" d="M0,0H3.173L5.61,6.019c.31.8.581,1.652.87,2.487h.1c.309-.835.561-1.687.871-2.487L9.828,0H13V12.872H10.388V7.5c0-1.217.213-3.008.348-4.226h-.078L9.5,6.3l-2.206,5.41H5.649L3.425,6.3,2.283,3.27H2.2c.136,1.218.369,3.009.369,4.226v5.376H0Z"/></g><g transform="translate(41.176 25.829)"><path class="d" d="M-3.528-8.665v3.444H2.812v2.157h-9.3V-15.936H2.593v2.14H-3.528v2.974" transform="translate(6.489 15.936)"/></g><g transform="translate(53 25.829)"><path class="d" d="M-4.021-12.874c2.4,0,3.9-1.287,3.9-4.418,0-3.148-1.5-4.331-3.9-4.331h-.8v8.749Zm-3.374-10.8h3.53c3.931,0,6.366,2.036,6.366,6.384C2.5-12.961.066-10.8-3.725-10.8h-3.67Z" transform="translate(7.395 23.676)"/></g><path class="d" d="M143.393-21.565h2.574v9.6h-2.574Z" transform="translate(-77.972 50.67)"/><g transform="translate(70.44 25.585)"><path class="d" d="M0-13.682l1.745-1.774A6.543,6.543,0,0,0,5.6-14.029c1.58,0,2.421-.575,2.421-1.479,0-.956-.924-1.253-2.278-1.739l-2.033-.73c-1.54-.54-3.08-1.584-3.08-3.461,0-2.106,2.176-3.724,5.256-3.724a7.417,7.417,0,0,1,4.762,1.652L9.115-21.892a5.372,5.372,0,0,0-3.223-1.061c-1.335,0-2.2.506-2.2,1.357,0,.922,1.087,1.253,2.382,1.687l1.991.713c1.848.644,3.058,1.637,3.058,3.5,0,2.106-2.073,3.9-5.583,3.9A8.92,8.92,0,0,1,0-13.682" transform="translate(0 25.162)"/></g><g transform="translate(83.287 25.585)"><path class="d" d="M0-8.023c0-4.245,2.922-6.732,6.4-6.732A5.8,5.8,0,0,1,10.441-13.1L8.99-11.466a3.66,3.66,0,0,0-2.531-1.079c-2.085,0-3.648,1.669-3.648,4.436,0,2.8,1.414,4.488,3.592,4.488A3.937,3.937,0,0,0,9.25-4.893l1.452,1.6A5.742,5.742,0,0,1,6.31-1.4C2.829-1.4,0-3.728,0-8.023" transform="translate(0 14.755)"/></g><g transform="translate(96.393 25.829)"><path class="d" d="M-3.069-7.112H-1.4c1.652,0,2.556-.7,2.556-2.07,0-1.392-.9-1.861-2.556-1.861h-1.67Zm4.436,6.9L-1.277-5.078H-3.069V-.207H-5.644V-13.079h4.488c2.7,0,4.837.94,4.837,3.9A3.686,3.686,0,0,1,1.227-5.477l3.01,5.27Z" transform="translate(5.644 13.079)"/></g><g transform="translate(13.833 0.393)"><path class="c" d="M-14.408,0H-26.5V13.01h11.927l.162-.156Z" transform="translate(26.496)"/></g><g transform="translate(13.833 0.393)"><path class="g" d="M-14.408,0H-26.5V13.01h11.927l.162-.156Z" transform="translate(26.496)"/></g><g transform="translate(25.791 13.247)"><path class="c" d="M-.155,0l-.13.154V9.821H12.75V0Z" transform="translate(0.285)"/></g><g transform="translate(25.791 13.247)"><path class="g" d="M-.155,0l-.13.154V9.821H12.75V0Z" transform="translate(0.285)"/></g></g></g></svg>