<svg xmlns="http://www.w3.org/2000/svg" viewBox="0 0 378.47 132.45"><defs><style>.cls-1{fill:#429d51;}.cls-2{fill:#221714;}.cls-3{fill:#1e893a;}.cls-4{fill:none;stroke:#429d51;stroke-linecap:round;stroke-linejoin:round;stroke-width:1.72px;}</style></defs><title>자산 1</title><g id="레이어_2" data-name="레이어 2"><g id="레이어_1-2" data-name="레이어 1"><g id="그룹_351" data-name="그룹 351"><g id="그룹_150" data-name="그룹 150"><g id="그룹_136" data-name="그룹 136"><path id="패스_174" data-name="패스 174" class="cls-1" d="M378.47,91.51a5.26,5.26,0,0,1-5.26,5.26h0a5.27,5.27,0,1,1,5.26-5.27h0"/></g><path id="패스_175" data-name="패스 175" class="cls-2" d="M368.82,98.86h8.78v32.75h-8.78Z"/><rect class="cls-3" x="43.84" y="113.16" width="33" height="2.78"/><rect class="cls-3" x="43.84" y="107.82" width="33" height="2.79"/><rect class="cls-3" x="43.84" y="97.15" width="33" height="2.79"/><rect class="cls-3" x="43.84" y="102.49" width="33" height="2.79"/><rect class="cls-3" x="43.84" y="123.83" width="33" height="2.79"/><polygon class="cls-3" points="76.84 57.27 76.84 55.2 43.84 55.2 0 55.2 0 57.27 76.84 57.27"/><rect class="cls-3" x="43.84" y="118.49" width="33" height="2.79"/><rect class="cls-3" x="43.84" y="129.16" width="33" height="1.63"/><rect class="cls-3" y="65.15" width="76.84" height="2.79"/><rect class="cls-3" y="59.81" width="76.84" height="2.79"/><rect class="cls-3" x="43.84" y="91.82" width="33" height="2.78"/><rect class="cls-3" y="70.48" width="76.84" height="2.79"/><rect class="cls-3" y="75.82" width="76.84" height="2.79"/><polygon class="cls-3" points="0 86.49 0 88.24 43.84 88.24 43.84 89.28 76.84 89.28 76.84 86.49 0 86.49"/><rect class="cls-3" y="81.15" width="76.84" height="2.79"/><g id="그룹_138" data-name="그룹 138"><path id="패스_191" data-name="패스 191" class="cls-1" d="M231.47,91.5a5.32,5.32,0,1,1-5.32-5.31,5.32,5.32,0,0,1,5.32,5.31"/></g><g id="그룹_139" data-name="그룹 139"><path id="패스_192" data-name="패스 192" class="cls-1" d="M164,109.65a5.48,5.48,0,1,1-5.47-5.48,5.47,5.47,0,0,1,5.47,5.48h0"/></g><g id="그룹_140" data-name="그룹 140"><path id="패스_193" data-name="패스 193" class="cls-2" d="M86.67,87.68H97.5l8.32,20.54c1.05,2.73,2,5.64,3,8.49h.33c1-2.85,1.91-5.76,3-8.49l8.12-20.54H131v43.93h-8.92V113.26c0-4.15.73-10.26,1.19-14.42h-.26l-4,10.33-7.53,18.46H106l-7.6-18.46-3.9-10.33h-.26c.46,4.16,1.26,10.27,1.26,14.42v18.35H86.67Z"/></g><g id="그룹_141" data-name="그룹 141"><path id="패스_194" data-name="패스 194" class="cls-2" d="M149.12,112.49v11.76h21.64v7.36H139V87.68h31V95H149.12v10.15"/></g><g id="그룹_142" data-name="그룹 142"><path id="패스_195" data-name="패스 195" class="cls-2" d="M190.88,124.55c8.2,0,13.3-4.4,13.3-15.08s-5.1-14.78-13.3-14.78h-2.73v29.86ZM179.37,87.68h12c13.41,0,21.73,6.95,21.73,21.79s-8.32,22.14-21.26,22.14H179.37Z"/></g><path id="패스_196" data-name="패스 196" class="cls-2" d="M221.76,98.86h8.79v32.75h-8.79Z"/><g id="그룹_143" data-name="그룹 143"><path id="패스_197" data-name="패스 197" class="cls-2" d="M238.9,126l5.95-6.06A22.35,22.35,0,0,0,258,124.85c5.4,0,8.27-2,8.27-5,0-3.27-3.15-4.28-7.78-5.94l-6.93-2.49c-5.26-1.85-10.51-5.41-10.51-11.81,0-7.19,7.42-12.71,17.94-12.71a25.32,25.32,0,0,1,16.25,5.63L270,98a18.25,18.25,0,0,0-11-3.62c-4.56,0-7.5,1.72-7.5,4.63,0,3.14,3.71,4.27,8.12,5.76l6.8,2.43c6.31,2.2,10.44,5.58,10.44,11.93,0,7.19-7.08,13.3-19.06,13.3A30.44,30.44,0,0,1,238.9,126"/></g><g id="그룹_144" data-name="그룹 144"><path id="패스_198" data-name="패스 198" class="cls-2" d="M282.74,109.82c0-14.49,10-23,21.86-23a19.77,19.77,0,0,1,13.78,5.63l-4.95,5.59a12.48,12.48,0,0,0-8.64-3.68c-7.12,0-12.45,5.7-12.45,15.13s4.82,15.32,12.26,15.32a13.42,13.42,0,0,0,9.72-4.33l4.95,5.46a19.57,19.57,0,0,1-15,6.47c-11.88,0-21.54-8-21.54-22.62"/></g><g id="그룹_145" data-name="그룹 145"><path id="패스_199" data-name="패스 199" class="cls-2" d="M336.26,108.05H342c5.64,0,8.73-2.38,8.73-7.07s-3.09-6.35-8.73-6.35h-5.7Zm15.15,23.56-9-16.62h-6.12v16.62h-8.78V87.68H342.8c9.2,0,16.5,3.21,16.5,13.3,0,6.59-3.32,10.68-8.37,12.64l10.27,18Z"/></g><g id="그룹_146" data-name="그룹 146"><path id="패스_200" data-name="패스 200" class="cls-1" d="M86.94.86H45.68V45.27H86.39l.55-.53Z"/></g><g id="그룹_147" data-name="그룹 147"><path id="패스_201" data-name="패스 201" class="cls-4" d="M86.94.86H45.68V45.27H86.39l.55-.53Z"/></g><g id="그룹_148" data-name="그룹 148"><path id="패스_202" data-name="패스 202" class="cls-1" d="M86.94,44.74l-.44.52v33H131V44.74Z"/></g><g id="그룹_149" data-name="그룹 149"><path id="패스_203" data-name="패스 203" class="cls-4" d="M86.94,44.74l-.44.52v33H131V44.74Z"/></g></g></g></g></g></svg>