<svg xmlns="http://www.w3.org/2000/svg" xmlns:xlink="http://www.w3.org/1999/xlink" viewBox="0 0 18 19.98"><defs><style>.cls-1{fill:none;}.cls-2{clip-path:url(#clip-path);}.cls-3{fill:#429d51;}</style><clipPath id="clip-path" transform="translate(0 -0.02)"><rect class="cls-1" width="18" height="20"/></clipPath></defs><title>자산 1</title><g id="레이어_2" data-name="레이어 2"><g id="레이어_1-2" data-name="레이어 1"><g class="cls-2"><path class="cls-3" d="M16.94,14.43c0-.22,0-.42,0-.61a.81.81,0,0,0-.39-.78l-.7-.48a3.34,3.34,0,0,1-1.41-2.2c-.27-1.45-.55-2.9-.8-4.35a8.29,8.29,0,0,0-.83-2.61A4.31,4.31,0,0,0,7,1.62,3.77,3.77,0,0,0,6.45,2,5.16,5.16,0,0,0,4.56,5.12c-.33,1.56-.64,3.13-.88,4.71a3.89,3.89,0,0,1-2,3,1.31,1.31,0,0,0-.35.27,1.06,1.06,0,0,0-.26.49,4.38,4.38,0,0,0,0,.81ZM9,15.55H.69c-.51,0-.69-.19-.68-.72S0,14,0,13.6a1.93,1.93,0,0,1,.83-1.48c.22-.16.45-.31.69-.46a2.05,2.05,0,0,0,1-1.5c.32-1.73.61-3.47,1-5.19A6,6,0,0,1,6.74.53,5.33,5.33,0,0,1,13.81,3a9.59,9.59,0,0,1,.88,2.86c.26,1.44.53,2.87.8,4.3a2.06,2.06,0,0,0,1,1.46,7.64,7.64,0,0,1,.83.57A1.92,1.92,0,0,1,18,13.78c0,.35,0,.71,0,1.06,0,.51-.18.7-.66.7H9Z" transform="translate(0 -0.02)"/><path class="cls-3" d="M9.15,20a3.37,3.37,0,0,1-2.82-1.36,2.67,2.67,0,0,1-.5-1.73.54.54,0,0,1,.52-.54h0a.54.54,0,0,1,.54.53,1.94,1.94,0,0,0,1.92,2h0a2.25,2.25,0,0,0,1.86-.7A1.62,1.62,0,0,0,11.12,17c0-.4.2-.64.54-.64s.52.25.52.65a2.92,2.92,0,0,1-2,2.76,8.57,8.57,0,0,1-1,.21" transform="translate(0 -0.02)"/></g></g></g></svg>