<svg xmlns="http://www.w3.org/2000/svg" xmlns:xlink="http://www.w3.org/1999/xlink" viewBox="0 0 18 20"><defs><style>.a{fill:none;}.b{clip-path:url(#a);}.c{fill:#91918f;fill-rule:evenodd;}</style><clipPath id="a"><path class="a" d="M0-432.69H18v20H0Z" transform="translate(0 432.69)"/></clipPath></defs><g transform="translate(0 432.69)"><g class="b" transform="translate(0 -432.69)"><g transform="translate(0 0)"><path class="c" d="M-367.126-297.734c0-.215-.007-.414,0-.613a.84.84,0,0,0-.385-.779c-.234-.159-.471-.314-.7-.477a3.354,3.354,0,0,1-1.415-2.2c-.273-1.449-.545-2.9-.8-4.349a8.061,8.061,0,0,0-.831-2.61,4.3,4.3,0,0,0-6.359-1.438,5.165,5.165,0,0,0-1.892,3.154c-.323,1.563-.635,3.131-.876,4.71a3.914,3.914,0,0,1-1.978,3.037,1.2,1.2,0,0,0-.357.266,1.149,1.149,0,0,0-.259.487,5.028,5.028,0,0,0-.011.81Zm-7.938,1.12h-8.312c-.511,0-.685-.184-.684-.723,0-.408-.018-.818.012-1.224a1.929,1.929,0,0,1,.832-1.48c.224-.161.453-.315.688-.457a2.091,2.091,0,0,0,.985-1.509c.317-1.73.608-3.466.976-5.184a6.043,6.043,0,0,1,3.24-4.437,5.31,5.31,0,0,1,7.068,2.5,9.353,9.353,0,0,1,.886,2.859c.255,1.437.529,2.87.8,4.3a2.056,2.056,0,0,0,.956,1.453,8.589,8.589,0,0,1,.828.569,1.941,1.941,0,0,1,.724,1.563c.007.354,0,.709,0,1.063,0,.507-.184.7-.661.7h-8.334Z" transform="translate(384.065 312.163)"/></g><g transform="translate(5.825 16.374)"><path class="c" d="M-72.112-74.829a3.37,3.37,0,0,1-2.821-1.359,2.689,2.689,0,0,1-.5-1.73.53.53,0,0,1,.523-.538.533.533,0,0,1,.533.529,1.946,1.946,0,0,0,1.929,1.967,2.209,2.209,0,0,0,1.863-.7,1.645,1.645,0,0,0,.443-1.146c0-.407.2-.647.533-.644s.525.25.525.655a2.91,2.91,0,0,1-2.044,2.755,7.586,7.586,0,0,1-.98.214" transform="translate(75.439 78.455)"/></g></g></g></svg>