<svg xmlns="http://www.w3.org/2000/svg" xmlns:xlink="http://www.w3.org/1999/xlink" viewBox="0 0 20 20"><defs><style>.a{fill:none;}.b{clip-path:url(#a);}.c{fill:#91918f;fill-rule:evenodd;}</style><clipPath id="a"><path class="a" d="M0-443.958H20v20H0Z" transform="translate(0 443.958)"/></clipPath></defs><g class="b" transform="translate(0 0)"><g transform="translate(0 1.809)"><path class="c" d="M-192.6-385.6c-1.914,0-3.828,0-5.741,0a3.222,3.222,0,0,1-3.19-2.3,3.691,3.691,0,0,1-.145-1.019q-.015-5.776,0-11.552a3.227,3.227,0,0,1,3.318-3.313c2.3,0,4.608,0,6.912,0a.573.573,0,0,1,.568.285.538.538,0,0,1-.418.792,1.834,1.834,0,0,1-.247.006q-3.422,0-6.844,0a2.131,2.131,0,0,0-2.149,1.694,2.778,2.778,0,0,0-.056.6q0,5.731,0,11.462a2.164,2.164,0,0,0,2.268,2.264q5.741,0,11.482,0a2.158,2.158,0,0,0,2.271-2.278q0-3.434,0-6.868c0-.437.282-.7.652-.625a.526.526,0,0,1,.426.487c0,.045,0,.09,0,.135,0,2.319,0,4.639,0,6.958a3.21,3.21,0,0,1-2.667,3.213,3.991,3.991,0,0,1-.739.057q-2.848.007-5.7,0" transform="translate(201.681 403.786)"/></g><g transform="translate(7.431 0)"><path class="c" d="M-40.542-241.037h.626q1.9,0,3.805,0a.546.546,0,0,1,.6.6.531.531,0,0,1-.554.482c-.721,0-1.441,0-2.162,0h-3.828c-.307,0-.4-.1-.4-.4q0-2.826,0-5.653c0-.068,0-.135,0-.2a.551.551,0,0,1,.557-.581.54.54,0,0,1,.522.586q0,2.106,0,4.211v.3c.1-.1.165-.152.225-.212q5.135-5.135,10.269-10.273a.6.6,0,0,1,.488-.231.5.5,0,0,1,.454.317.5.5,0,0,1-.084.566c-.055.062-.116.118-.175.176q-5.089,5.038-10.179,10.076a2.381,2.381,0,0,1-.21.167Z" transform="translate(42.454 252.408)"/></g></g></svg>