<svg xmlns="http://www.w3.org/2000/svg" xmlns:xlink="http://www.w3.org/1999/xlink" viewBox="0 0 32 32"><defs><style>.a,.d{fill:#fff;}.b{fill:#429d51;}.c{clip-path:url(#a);}.d{fill-rule:evenodd;}</style><clipPath id="a"><path class="a" d="M0-443.958H20.424v20.424H0Z" transform="translate(0 443.958)"/></clipPath></defs><g transform="translate(-5548 -2549)"><rect class="b" width="32" height="32" rx="5" transform="translate(5548 2549)"/><g transform="translate(5554 2555)"><g class="c" transform="translate(0 0)"><g transform="translate(0 1.847)"><path class="d" d="M-192.4-385.21c-1.954,0-3.909,0-5.863,0a3.29,3.29,0,0,1-3.257-2.351,3.769,3.769,0,0,1-.148-1.041q-.015-5.9,0-11.8a3.3,3.3,0,0,1,3.388-3.383c2.353,0,4.706,0,7.058,0a.586.586,0,0,1,.58.291.55.55,0,0,1-.427.809,1.872,1.872,0,0,1-.253.006q-3.495,0-6.99,0a2.176,2.176,0,0,0-2.195,1.73,2.838,2.838,0,0,0-.057.616q0,5.853,0,11.7a2.21,2.21,0,0,0,2.316,2.312q5.863,0,11.726,0a2.2,2.2,0,0,0,2.32-2.326q0-3.507,0-7.014c0-.446.288-.719.666-.638a.537.537,0,0,1,.435.5c0,.046,0,.092,0,.138,0,2.369,0,4.737,0,7.106a3.278,3.278,0,0,1-2.723,3.281,4.076,4.076,0,0,1-.754.058q-2.908.007-5.817,0" transform="translate(201.681 403.786)"/></g><g transform="translate(7.588 0)"><path class="d" d="M-40.5-240.8h.639q1.943,0,3.886,0a.558.558,0,0,1,.614.61.542.542,0,0,1-.566.492c-.736,0-1.472,0-2.207,0h-3.909c-.313,0-.41-.1-.41-.407q0-2.886,0-5.773c0-.069,0-.138,0-.207a.563.563,0,0,1,.568-.593.552.552,0,0,1,.533.6q0,2.15,0,4.3v.309c.1-.1.169-.156.229-.217q5.244-5.244,10.486-10.49a.614.614,0,0,1,.5-.235.513.513,0,0,1,.464.324.513.513,0,0,1-.085.578c-.056.063-.118.12-.178.179q-5.2,5.145-10.394,10.289a2.425,2.425,0,0,1-.214.17Z" transform="translate(42.454 252.408)"/></g></g></g></g></svg>