<svg xmlns="http://www.w3.org/2000/svg" xmlns:xlink="http://www.w3.org/1999/xlink" viewBox="0 0 12.393 15.21"><defs><style>.a{fill:none;}.b{clip-path:url(#a);}.c{fill:#8c8c89;fill-rule:evenodd;}</style><clipPath id="a"><path class="a" d="M0-210.16H15.21v12.393H0Z" transform="translate(0 210.16)"/></clipPath></defs><g transform="translate(-197.768) rotate(90)"><g class="b" transform="translate(0 -210.16)"><g transform="translate(0 0)"><path class="c" d="M-121.4-197.732q-3.448,0-6.9,0a.641.641,0,0,1-.639-.27c-.156-.264-.033-.484.108-.709q3.444-5.5,6.884-11.009c.337-.539.745-.54,1.081,0q3.442,5.5,6.884,11.009c.14.224.265.444.112.709s-.4.273-.667.273q-3.433-.005-6.866,0" transform="translate(129.003 210.122)"/></g></g></g></svg>