<svg xmlns="http://www.w3.org/2000/svg" xmlns:xlink="http://www.w3.org/1999/xlink" viewBox="0 0 17 20"><defs><style>.a{fill:none;}.b{clip-path:url(#a);}.c{fill:#429d51;fill-rule:evenodd;}</style><clipPath id="a"><path class="a" d="M0-239.932H17v20H0Z" transform="translate(0 239.932)"/></clipPath></defs><g transform="translate(0 239.932)"><g class="b" transform="translate(0 -239.932)"><g transform="translate(3.498 0)"><path class="c" d="M-98.977-54.779A4.006,4.006,0,0,0-103-58.76a4,4,0,0,0-3.981,4.018,4.005,4.005,0,0,0,4.018,3.982,4.008,4.008,0,0,0,3.982-4.019m-4,5.02a5,5,0,0,1-5-5.007,5,5,0,0,1,5.017-4.993,5,5,0,0,1,4.984,4.985,5.006,5.006,0,0,1-5,5.016" transform="translate(107.978 59.76)"/></g><g transform="translate(0 11.002)"><path class="c" d="M-88.326,0c5.064-.007,8.913,3.734,8.963,8.279,0,.137.026.325-.049.4a.893.893,0,0,1-.527.3c-.28,0-.394-.237-.424-.522a13.382,13.382,0,0,0-.251-1.85,7.486,7.486,0,0,0-7.748-5.59,7.493,7.493,0,0,0-6.928,6.534c-.034.275-.052.552-.067.829-.021.4-.2.629-.513.623s-.5-.234-.486-.642A8.372,8.372,0,0,1-91.386.768,7.527,7.527,0,0,1-88.326,0" transform="translate(96.358 0)"/></g></g></g></svg>