<svg xmlns="http://www.w3.org/2000/svg" xmlns:xlink="http://www.w3.org/1999/xlink" viewBox="0 0 16.56 15"><defs><style>.a,.c{fill:#8c8c89;}.b{clip-path:url(#a);}.c{fill-rule:evenodd;}</style><clipPath id="a"><path class="a" d="M0-371.594H16.56v15H0Z" transform="translate(0 371.594)"/></clipPath></defs><g transform="translate(0 371.594)"><g class="b" transform="translate(0 -371.594)"><g transform="translate(0 0)"><path class="c" d="M-185.4,0a.218.218,0,0,0,.037.008,7.778,7.778,0,0,1,2.459.523A7.1,7.1,0,0,1-180.549,2a7.481,7.481,0,0,1,1.384,1.789,7.721,7.721,0,0,1,.851,2.242,7.1,7.1,0,0,1,.142,1.258,7.809,7.809,0,0,1-.241,2.089.24.24,0,0,0,0,.025l.132-.05.839-.323a.324.324,0,0,1,.449.2q.165.431.329.863a.323.323,0,0,1-.2.44l-3.054,1.178a.323.323,0,0,1-.437-.194l-1.174-3.065a.323.323,0,0,1,.2-.455l.85-.323a.325.325,0,0,1,.454.205l.142.365a.079.079,0,0,0,.027.038c.01-.092.022-.183.03-.275a5.531,5.531,0,0,0-.03-1.227,5.847,5.847,0,0,0-.846-2.373,5.851,5.851,0,0,0-3.133-2.477,5.486,5.486,0,0,0-1.728-.3,5.836,5.836,0,0,0-4.075,1.522,5.7,5.7,0,0,0-1.829,3.161,5.717,5.717,0,0,0-.092,1.772,5.8,5.8,0,0,0,1.548,3.435,5.734,5.734,0,0,0,2.87,1.679,5.8,5.8,0,0,0,1.694.172,5.916,5.916,0,0,0,3.628-1.426c.091-.077.178-.159.266-.24a.323.323,0,0,1,.461.006q.322.318.643.638a.325.325,0,0,1,.009.485,6.2,6.2,0,0,1-1.362,1.093,7.488,7.488,0,0,1-2.518.94,7.593,7.593,0,0,1-1.667.121A7.465,7.465,0,0,1-189,14.237a7.394,7.394,0,0,1-1.873-1.3,7.436,7.436,0,0,1-1.482-1.978,7.535,7.535,0,0,1-.724-2.125,7.278,7.278,0,0,1-.111-.98.334.334,0,0,0-.008-.045v-.62a.345.345,0,0,0,.008-.041c.011-.148.018-.3.034-.444a7.422,7.422,0,0,1,.452-1.875,7.5,7.5,0,0,1,1.612-2.539A7.41,7.41,0,0,1-188.987.758a7.437,7.437,0,0,1,2.926-.75.278.278,0,0,0,.04-.008Z" transform="translate(193.2)"/></g></g></g></svg>