<svg xmlns="http://www.w3.org/2000/svg" xmlns:xlink="http://www.w3.org/1999/xlink" viewBox="0 0 20 20"><defs><style>.a,.b{fill:none;}.b{stroke:#8c8c89;}.c{clip-path:url(#a);}.d{fill:#8c8c89;fill-rule:evenodd;}.e{stroke:none;}</style><clipPath id="a"><path class="a" d="M0-504.96H20v20H0Z" transform="translate(0 504.96)"/></clipPath></defs><g transform="translate(-1331 -219.96)"><g class="b" transform="translate(1336 225)"><circle class="e" cx="5" cy="5" r="5"/><circle class="a" cx="5" cy="5" r="4.5"/></g><g transform="translate(1331 724.92)"><g class="c" transform="translate(0 -504.96)"><g transform="translate(0 0)"><path class="d" d="M-62.636-283.147l1,2.417c-.021.022-.038.041-.056.059-.229.224-.459.446-.685.672a1.172,1.172,0,0,0-.162.2.394.394,0,0,0,0,.44.922.922,0,0,0,.133.172q.778.782,1.56,1.559a1.024,1.024,0,0,0,.2.154.372.372,0,0,0,.4,0,1.1,1.1,0,0,0,.2-.156c.159-.155.311-.316.467-.473.094-.094.19-.185.292-.283l2.406.991c0,.121,0,.231,0,.342,0,.291,0,.583.006.874a.429.429,0,0,0,.457.442q1.207,0,2.414,0a.435.435,0,0,0,.459-.452c0-.136,0-.272,0-.409,0-.168,0-.336.018-.5a.539.539,0,0,1,.285-.435,1.513,1.513,0,0,1,.18-.084l1.715-.7.256-.1c.025.03.048.061.074.088.224.229.447.458.673.684a.945.945,0,0,0,.17.136.392.392,0,0,0,.432.006,1.183,1.183,0,0,0,.208-.164c.169-.163.333-.331.5-.5.327-.327.655-.653.98-.982a1.584,1.584,0,0,0,.188-.225.388.388,0,0,0,0-.463,1.357,1.357,0,0,0-.163-.2c-.23-.232-.462-.461-.694-.691-.024-.024-.047-.05-.069-.073.057-.119.108-.231.163-.342A10.32,10.32,0,0,0-48-282.625c.044-.139.093-.276.143-.413.01-.027.029-.065.052-.071a1.181,1.181,0,0,1,.277-.058c.24-.008.481,0,.722,0a2.011,2.011,0,0,0,.312-.019.4.4,0,0,0,.352-.338.655.655,0,0,0,.014-.132q0-.965.007-1.929c0-.158,0-.317-.008-.475a.432.432,0,0,0-.387-.435,1.007,1.007,0,0,0-.161-.013h-1.107c-.014-.03-.024-.049-.032-.07l-.935-2.265c-.033-.079-.032-.079.035-.144.23-.227.461-.453.689-.682a1.025,1.025,0,0,0,.133-.16.422.422,0,0,0,0-.5.908.908,0,0,0-.115-.139q-.782-.784-1.566-1.566a.966.966,0,0,0-.162-.13.4.4,0,0,0-.457,0,1.106,1.106,0,0,0-.184.148c-.239.236-.475.475-.711.714a1.125,1.125,0,0,0-.081.1c-.058-.032-.1-.052-.135-.074a7.925,7.925,0,0,0-1.266-.606c-.193-.069-.39-.128-.588-.187a.485.485,0,0,1-.382-.5c0-.057,0-.114,0-.171,0-.222,0-.444,0-.665A.449.449,0,0,0-54-293.9a1.245,1.245,0,0,0-.133-.007h-2.186a1.313,1.313,0,0,0-.2.016.42.42,0,0,0-.374.363,1.111,1.111,0,0,0-.018.189c0,.257,0,.513-.005.77a.528.528,0,0,1-.4.519,7.426,7.426,0,0,0-1.837.808c-.035.021-.07.041-.109.064l-.085-.083c-.245-.248-.488-.5-.734-.744a.982.982,0,0,0-.17-.136.4.4,0,0,0-.457,0,1.145,1.145,0,0,0-.184.148c-.159.154-.315.313-.471.47-.365.365-.732.728-1.093,1.1a.472.472,0,0,0,0,.749c.158.16.318.318.478.477l.287.287c-.006.019-.01.031-.014.043-.262.679-.523,1.359-.788,2.037a.512.512,0,0,1-.491.342c-.3.011-.6.011-.9.014a.433.433,0,0,0-.432.473c.016.154.015.31.015.465,0,.5,0,1,0,1.5,0,.146,0,.292,0,.437a.441.441,0,0,0,.451.454c.047,0,.1,0,.143,0h1.059Zm8.1,8.323h-1.35a.989.989,0,0,0-.1-.014c-.19-.008-.381,0-.569-.022a1.356,1.356,0,0,1-1.233-1.31c-.008-.174,0-.348,0-.523,0-.034,0-.068,0-.1l-1.308-.534-.275.286a1.893,1.893,0,0,1-.418.341,1.317,1.317,0,0,1-.942.164,1.474,1.474,0,0,1-.76-.424l-1.593-1.593a1.6,1.6,0,0,1-.3-.393,1.313,1.313,0,0,1-.151-.78,1.382,1.382,0,0,1,.375-.793c.11-.117.236-.221.354-.33l.07-.062-.527-1.348h-.117c-.2,0-.406,0-.608-.014a1.285,1.285,0,0,1-1.2-1.12.826.826,0,0,0-.035-.116v-2.567a1.3,1.3,0,0,0,.036-.136,1.392,1.392,0,0,1,.286-.674,1.361,1.361,0,0,1,1.008-.5c.192-.014.386-.007.579-.01.025,0,.049,0,.072,0l.523-1.276c-.073-.073-.144-.142-.212-.212-.1-.1-.2-.2-.286-.3a1.35,1.35,0,0,1-.317-1.061,1.387,1.387,0,0,1,.411-.816q.659-.665,1.321-1.326.168-.168.338-.334a1.367,1.367,0,0,1,1.935-.029c.065.06.126.125.19.186l.251.242,1.29-.53c0-.174,0-.339,0-.5a1.8,1.8,0,0,1,.026-.312,1.341,1.341,0,0,1,.859-1.044,1.48,1.48,0,0,1,.578-.088.659.659,0,0,0,.1-.014h2.034c.081.005.162.012.244.016a1.324,1.324,0,0,1,.981.471,1.4,1.4,0,0,1,.334.918c0,.183,0,.366,0,.553l1.28.522c.144-.131.267-.25.4-.361a2.375,2.375,0,0,1,.323-.248,1.281,1.281,0,0,1,1.262-.062,1.607,1.607,0,0,1,.453.326l1.579,1.579a1.611,1.611,0,0,1,.308.419,1.3,1.3,0,0,1,.026,1.164,1.483,1.483,0,0,1-.287.423c-.114.119-.233.233-.349.35-.024.024-.047.05-.071.077l.521,1.279c.137,0,.266,0,.4,0a2.364,2.364,0,0,1,.529.045,1.329,1.329,0,0,1,1.032,1.184.267.267,0,0,0,.016.052v2.567c-.01.065-.015.131-.03.194a1.323,1.323,0,0,1-.939,1.026,1.831,1.831,0,0,1-.573.07h-.431l-.52,1.279c.025.027.046.05.068.072.114.114.23.227.342.343a1.392,1.392,0,0,1,.41.847A1.343,1.343,0,0,1-47.3-278.6q-.637.646-1.28,1.287c-.141.141-.282.283-.428.418a1.331,1.331,0,0,1-1.182.356,1.389,1.389,0,0,1-.751-.4c-.117-.116-.236-.23-.348-.35a.108.108,0,0,0-.141-.027c-.374.155-.749.308-1.124.461-.026.011-.051.024-.082.039,0,.178,0,.356,0,.532a2.075,2.075,0,0,1-.039.358,1.332,1.332,0,0,1-1.181,1.062c-.189.018-.379.015-.569.023-.037,0-.074.009-.111.014" transform="translate(65.219 294.824)"/></g></g></g></g></svg>