<svg xmlns="http://www.w3.org/2000/svg" viewBox="0 0 13.01 13.79"><defs><style>.cls-1,.cls-2,.cls-4{fill:none;}.cls-2,.cls-4{stroke:#91918f;}.cls-2{stroke-width:1.5px;}.cls-3{fill:#e4e6e1;}</style></defs><title>자산 1</title><g id="레이어_2" data-name="레이어 2"><g id="레이어_1-2" data-name="레이어 1"><circle class="cls-1" cx="5.48" cy="5.48" r="5.48"/><circle class="cls-2" cx="5.48" cy="5.48" r="4.73"/><path class="cls-3" d="M8.79,9.56h0a.69.69,0,0,1,1,0l3,3a.69.69,0,0,1,0,1h0a.69.69,0,0,1-1,0l-3-3A.69.69,0,0,1,8.79,9.56Z"/><path class="cls-4" d="M9.14,9.91h0a.21.21,0,0,1,.28,0l3,3a.19.19,0,0,1,0,.28h0a.19.19,0,0,1-.28,0l-3-3A.21.21,0,0,1,9.14,9.91Z"/></g></g></svg>