<svg xmlns="http://www.w3.org/2000/svg" xmlns:xlink="http://www.w3.org/1999/xlink" viewBox="0 0 27.941 20"><defs><style>.a{fill:none;}.b{clip-path:url(#a);}.c{fill:#91918f;fill-rule:evenodd;}</style><clipPath id="a"><path class="a" d="M0-342.72H27.941v20H0Z" transform="translate(0 342.72)"/></clipPath></defs><g transform="translate(0 342.72)"><g class="b" transform="translate(0 -342.72)"><g transform="translate(0 0)"><path class="c" d="M-431.872-20.754l-.048.013-1,.319-5.4,1.727-8.879,2.84-7.2,2.3a1.415,1.415,0,0,1-.88.012l-1.945-.619-.255-.081v3.908c.032-.009.061-.016.089-.025l2.015-.651a1.615,1.615,0,0,1,1.018,0l2.633.853c.032.01.063.023.109.04l-1.326,4.248,8.213,2.589c.454-1.4.865-2.806,1.352-4.207l11.494,3.675Zm-26.764,4.974.568.146c.8.2,1.565.488,2.349.728.261.08.519.166.781.243a.332.332,0,0,0,.183,0q1.888-.6,3.775-1.2l7.4-2.366,5.45-1.745,6.208-1.986c.094-.03.192-.05.289-.075h.238a.108.108,0,0,0,.025.011.757.757,0,0,1,.635.62c.019.078.027.158.041.237V-3.4c-.009.061-.019.122-.028.183a.772.772,0,0,1-.611.666,1.164,1.164,0,0,1-.592-.06l-2.549-.816L-442.22-5.9l-.4-.128c-.008.02-.014.033-.018.046q-.421,1.336-.842,2.672c-.084.264-.165.529-.268.786a.748.748,0,0,1-.495.451l-.118.034h-.224c-.031-.007-.063-.013-.093-.023-.232-.069-.465-.135-.7-.208l-7.5-2.364c-.253-.08-.508-.156-.756-.251a.783.783,0,0,1-.53-.633,1.121,1.121,0,0,1,.057-.517l.838-2.667.209-.664-.077-.026c-.507-.165-1.015-.328-1.521-.5a.582.582,0,0,0-.382,0c-.549.181-1.1.355-1.648.537q-.963.319-1.95.55Z" transform="translate(458.636 22.04)"/></g><g transform="translate(6.517 12.062)"><path class="c" d="M-20.348-48.431l5.094,1.607.48-1.513-5.09-1.629-.484,1.535m-.271-3,7.292,2.333c-.009.035-.016.066-.026.1q-.426,1.379-.853,2.757a.871.871,0,0,1-.591.63.982.982,0,0,1-.592-.025l-3.105-.981-2.459-.776a.96.96,0,0,1-.48-.3.752.752,0,0,1-.136-.732c.309-.992.623-1.982.935-2.973a.313.313,0,0,1,.015-.032" transform="translate(21.609 51.432)"/></g></g></g></svg>